<?xml version="1.0" encoding="UTF-8" standalone="no"?>
<!-- Created with Inkscape (http://www.inkscape.org/) -->

<svg
   xmlns:dc="http://purl.org/dc/elements/1.1/"
   xmlns:cc="http://creativecommons.org/ns#"
   xmlns:rdf="http://www.w3.org/1999/02/22-rdf-syntax-ns#"
   xmlns:svg="http://www.w3.org/2000/svg"
   xmlns="http://www.w3.org/2000/svg"
   xmlns:sodipodi="http://sodipodi.sourceforge.net/DTD/sodipodi-0.dtd"
   xmlns:inkscape="http://www.inkscape.org/namespaces/inkscape"
   width="1052.3622"
   height="744.09448"
   id="svg2"
   version="1.1"
   inkscape:version="0.48.5 r10040"
   sodipodi:docname="Nouveau document 1">
  <defs
     id="defs4" />
  <sodipodi:namedview
     id="base"
     pagecolor="#ffffff"
     bordercolor="#666666"
     borderopacity="1.0"
     inkscape:pageopacity="0.0"
     inkscape:pageshadow="2"
     inkscape:zoom="1.979899"
     inkscape:cx="372.61652"
     inkscape:cy="419.08589"
     inkscape:document-units="px"
     inkscape:current-layer="layer1"
     showgrid="false"
     inkscape:window-width="1920"
     inkscape:window-height="1017"
     inkscape:window-x="1672"
     inkscape:window-y="-8"
     inkscape:window-maximized="1" />
  <metadata
     id="metadata7">
    <rdf:RDF>
      <cc:Work
         rdf:about="">
        <dc:format>image/svg+xml</dc:format>
        <dc:type
           rdf:resource="http://purl.org/dc/dcmitype/StillImage" />
        <dc:title></dc:title>
      </cc:Work>
    </rdf:RDF>
  </metadata>
  <g
     inkscape:label="Calque 1"
     inkscape:groupmode="layer"
     id="layer1"
     transform="translate(0,-308.2677)">
    <flowRoot
       xml:space="preserve"
       id="flowRoot2985"
       style="font-size:40px;font-style:normal;font-weight:normal;line-height:125%;letter-spacing:0px;word-spacing:0px;fill:#000000;fill-opacity:1;stroke:none;font-family:Sans"
       transform="matrix(2.8884231,0.13845663,-0.11356053,2.3690513,-530.50364,-48.886208)"><flowRegion
         id="flowRegion2987"><rect
           id="rect2989"
           width="900"
           height="552.85712"
           x="232.85715"
           y="212.66591" /></flowRegion><flowPara
         id="flowPara2991"
         style="font-style:normal;font-variant:normal;font-weight:normal;font-stretch:normal;font-family:Freehand575 BT;-inkscape-font-specification:Freehand575 BT">I Gotta Go </flowPara></flowRoot>    <flowRoot
       xml:space="preserve"
       id="flowRoot2993"
       style="font-size:40px;font-style:normal;font-weight:normal;line-height:125%;letter-spacing:0px;word-spacing:0px;fill:#000000;fill-opacity:1;stroke:none;font-family:Sans"
       transform="matrix(1.1828694,0,0,0.98696305,-71.79945,320.20513)"><flowRegion
         id="flowRegion2995"><rect
           id="rect2997"
           width="272.85715"
           height="122.85714"
           x="414.28571"
           y="251.23734" /></flowRegion><flowPara
         id="flowPara2999"
         style="font-size:80px;font-style:normal;font-variant:normal;font-weight:bold;font-stretch:normal;font-family:Dancing Script OT;-inkscape-font-specification:Dancing Script OT Bold">Fast</flowPara></flowRoot>    <path
       style="fill:#1a1a1a"
       id="path3021"
       d="m 318.00705,589.96606 c 0.46206,-0.0272 0.92162,-0.0317 1.38429,-0.0101 0.50593,-0.0351 1.01394,-0.002 1.51956,0.0245 0.59488,0.043 1.19016,0.0315 1.78608,0.0598 0.69664,0.0218 1.38707,0.11387 2.07766,0.20117 0.78877,0.11336 1.57906,0.23091 2.36102,0.38607 0.84097,0.1377 1.66218,0.36413 2.48869,0.5671 0.85571,0.23283 1.70981,0.46938 2.55171,0.74862 0.87006,0.30805 1.74153,0.61079 2.59887,0.95307 0.90401,0.36003 1.79808,0.74841 2.68228,1.15488 0.93697,0.41186 1.86258,0.84826 2.77315,1.31557 0.95403,0.51107 1.91455,1.00963 2.87114,1.51586 0.99428,0.55193 1.98957,1.10271 2.97144,1.67655 1.01347,0.58646 2.01522,1.19283 3.01737,1.79838 1.02218,0.64026 2.05062,1.27016 3.07414,1.90827 1.06483,0.6499 2.11752,1.31911 3.18125,1.97083 1.10862,0.67792 2.22978,1.33495 3.3548,1.98518 1.18093,0.68145 2.3728,1.34362 3.5681,1.99945 1.25032,0.68505 2.51028,1.35224 3.77331,2.0135 1.31654,0.68842 2.64163,1.36026 3.96947,2.02658 1.35415,0.68733 2.72577,1.33897 4.11497,1.95216 1.36224,0.58452 2.74728,1.11468 4.1442,1.60997 1.34818,0.45193 2.72175,0.81978 4.1038,1.15128 1.32207,0.30583 2.65411,0.56296 3.99467,0.77236 1.25245,0.20589 2.51187,0.36178 3.77714,0.46067 1.16233,0.10889 2.33162,0.0715 3.49686,0.0464 1.08223,-0.008 2.15351,-0.13899 3.2237,-0.28505 0.95788,-0.14778 1.91502,-0.29969 2.85554,-0.53579 9.48148,-2.66761 -26.49444,7.12199 -17.61724,4.55111 0.67637,-0.163 1.3175,-0.43813 1.92887,-0.76582 0.50697,-0.28983 0.95003,-0.66752 1.37185,-1.06757 0.39039,-0.36655 0.71607,-0.79196 1.01342,-1.23539 0.30495,-0.44484 0.54341,-0.92708 0.74787,-1.42469 0.19083,-0.47123 0.30254,-0.96631 0.37776,-1.46743 0.0709,-0.49863 0.055,-1.00139 0.008,-1.50093 -0.0503,-0.55321 -0.15844,-1.09697 -0.29946,-1.63344 -0.1537,-0.56793 -0.37952,-1.11137 -0.62513,-1.64466 -0.27587,-0.58946 -0.61087,-1.14766 -0.96126,-1.69508 -0.37076,-0.57079 -0.78733,-1.10908 -1.22604,-1.62874 -0.44063,-0.52058 -0.92574,-1.00016 -1.42242,-1.46657 -0.49745,-0.45071 -1.02917,-0.86163 -1.57881,-1.24628 -0.57321,-0.39644 -1.16842,-0.76057 -1.76305,-1.12385 -0.65801,-0.36693 -1.3268,-0.71562 -2.01018,-1.03295 -0.71508,-0.3463 -1.44597,-0.65722 -2.1952,-0.92141 -0.76478,-0.24428 -1.53718,-0.46265 -2.31043,-0.67815 -0.86655,-0.22856 -1.74354,-0.41042 -2.62022,-0.59446 -0.93887,-0.18803 -1.88578,-0.32699 -2.8321,-0.47041 -0.98874,-0.16181 -1.98616,-0.25979 -2.98001,-0.38389 -1.04868,-0.12423 -2.09881,-0.23613 -3.14719,-0.36442 -1.1085,-0.12823 -2.21862,-0.24234 -3.32701,-0.37303 -1.16579,-0.13057 -2.33315,-0.24701 -3.49883,-0.37991 0,0 19.86249,-7.82282 19.86249,-7.82282 l 0,0 c 1.16887,0.12445 2.33809,0.24516 3.50515,0.38563 1.11188,0.12211 2.22406,0.24086 3.33397,0.37991 1.05316,0.1199 2.10671,0.23595 3.15707,0.37875 1.00677,0.12832 2.01004,0.27949 3.01005,0.45309 0.96562,0.16678 1.92712,0.35898 2.88032,0.58671 0.89994,0.21288 1.79478,0.44966 2.67663,0.7287 0.80688,0.25278 1.61138,0.52057 2.38333,0.86789 0.76234,0.34405 1.5181,0.70262 2.25815,1.09269 0.70654,0.38592 1.41371,0.7728 2.08046,1.2257 0.6252,0.40936 1.24536,0.82754 1.82552,1.29979 0.57766,0.47524 1.1445,0.96457 1.66197,1.50599 0.5257,0.54377 1.0344,1.10455 1.49687,1.70375 0.46259,0.60559 0.90792,1.22494 1.30054,1.87883 0.38139,0.63794 0.74412,1.28782 1.04335,1.9691 0.27934,0.64431 0.53555,1.2994 0.71813,1.97861 0.16739,0.63545 0.30803,1.27817 0.37778,1.93258 0.0824,0.64456 0.13322,1.2937 0.0965,1.94395 -0.0405,0.64875 -0.11659,1.29556 -0.28213,1.92578 -0.17112,0.63565 -0.37561,1.26364 -0.66638,1.85595 -0.28364,0.56349 -0.58199,1.12085 -0.94556,1.63779 -0.39635,0.5415 -0.82387,1.0623 -1.30935,1.52699 -0.56282,0.54041 -1.17692,1.0138 -1.86943,1.37958 -7.34232,3.24282 -15.37475,4.71311 -23.26048,6.16235 -0.97192,0.14008 -1.94483,0.28098 -2.92445,0.35542 -1.09823,0.0795 -2.19962,0.095 -3.30049,0.0788 -1.19571,-0.0237 -2.3886,-0.0993 -3.57477,-0.25742 -1.28033,-0.1682 -2.55707,-0.36388 -3.82601,-0.60426 -1.35891,-0.26961 -2.71347,-0.56522 -4.04999,-0.93153 -1.40889,-0.39471 -2.80989,-0.82199 -4.17414,-1.35357 -1.41413,-0.54666 -2.82195,-1.1118 -4.19468,-1.75684 -1.39218,-0.65475 -2.77291,-1.33315 -4.14356,-2.03192 -1.33354,-0.67723 -2.66415,-1.36028 -3.98569,-2.06073 -1.26937,-0.6737 -2.53547,-1.35363 -3.79126,-2.05241 -1.20241,-0.67008 -2.40113,-1.34688 -3.58809,-2.04406 -1.13241,-0.66626 -2.26041,-1.34006 -3.37617,-2.03394 -1.06173,-0.65964 -2.12308,-1.31983 -3.1867,-1.97643 -1.01872,-0.6313 -2.0405,-1.25794 -3.06639,-1.87751 -0.99461,-0.59498 -1.99441,-1.18148 -3.0037,-1.75128 -0.97863,-0.54435 -1.95356,-1.09585 -2.94994,-1.60747 -0.94599,-0.49528 -1.89255,-0.99087 -2.85433,-1.45482 -0.90973,-0.42276 -1.82541,-0.83229 -2.74666,-1.22935 -0.87471,-0.36365 -1.74738,-0.73212 -2.64406,-1.03961 -0.84566,-0.29065 -1.69117,-0.58554 -2.55385,-0.82237 -0.83162,-0.22205 -1.66379,-0.44477 -2.50642,-0.62172 -0.80769,-0.17686 -1.62198,-0.3152 -2.44027,-0.43392 -0.77024,-0.0981 -1.53898,-0.20963 -2.31499,-0.25276 -0.67643,-0.0444 -1.35356,-0.0583 -2.03135,-0.0667 -0.59477,-0.007 -1.18793,-0.0371 -1.78252,-0.0361 -0.50182,0.008 -1.00344,0.0392 -1.50523,0.0289 -0.44782,0.0281 -0.89466,0.0605 -1.34333,0.0659 0,0 19.77605,-8.12921 19.77605,-8.12921 z"
       inkscape:connector-curvature="0" />
    <path
       style="fill:#1a1a1a"
       id="path3021-1"
       d="m 512.46417,584.57848 c -0.44243,-0.136 -0.87455,-0.2925 -1.30049,-0.47444 -0.48628,-0.14396 -0.95054,-0.35292 -1.4151,-0.55419 -0.54232,-0.24826 -1.10405,-0.44559 -1.65247,-0.68043 -0.64506,-0.264 -1.25975,-0.59159 -1.87625,-0.91481 -0.69937,-0.38195 -1.3987,-0.76837 -2.07707,-1.1871 -0.73978,-0.423 -1.43001,-0.92224 -2.13342,-1.40134 -0.72032,-0.51728 -1.43784,-1.03749 -2.12899,-1.59344 -0.70746,-0.59277 -1.41812,-1.18107 -2.1017,-1.80147 -0.72111,-0.65335 -1.42299,-1.32978 -2.1093,-2.01972 -0.73387,-0.71342 -1.44851,-1.44586 -2.13826,-2.20201 -0.71517,-0.81235 -1.44079,-1.61524 -2.16005,-2.42395 -0.73859,-0.86469 -1.47854,-1.72866 -2.19785,-2.60955 -0.74449,-0.90375 -1.47105,-1.82207 -2.19828,-2.73975 -0.73385,-0.9572 -1.4772,-1.90689 -2.21305,-2.86255 -0.77044,-0.98115 -1.52277,-1.97614 -2.29154,-2.95861 -0.80167,-1.02271 -1.62241,-2.03023 -2.44913,-3.03273 -0.86818,-1.05129 -1.75336,-2.08835 -2.64396,-3.12066 -0.93195,-1.07893 -1.87916,-2.14449 -2.83133,-3.20557 -0.9928,-1.10523 -1.99942,-2.19792 -3.01054,-3.2864 -1.02842,-1.11735 -2.08568,-2.20739 -3.17286,-3.26754 -1.07195,-1.02386 -2.18426,-2.00476 -3.31988,-2.95715 -1.10513,-0.89473 -2.26343,-1.71955 -3.44239,-2.5133 -1.13173,-0.74871 -2.28984,-1.45528 -3.47261,-2.12012 -1.10144,-0.63074 -2.22689,-1.21708 -3.37776,-1.75205 -1.05092,-0.50836 -2.15951,-0.8821 -3.26,-1.26593 -1.01661,-0.37119 -2.06622,-0.62263 -3.11994,-0.85991 -0.9491,-0.19642 -1.89896,-0.38869 -2.86267,-0.4963 -9.81579,-0.81534 27.31249,2.5896 18.09666,1.89488 -0.69067,-0.0837 -1.38754,-0.0501 -2.07489,0.0432 -0.5763,0.0943 -1.12344,0.29328 -1.65849,0.52062 -0.49391,0.20695 -0.94776,0.49166 -1.38136,0.80316 -0.44122,0.31016 -0.83323,0.67861 -1.19874,1.07334 -0.34353,0.37479 -0.62126,0.79957 -0.86693,1.24278 -0.24071,0.44239 -0.40164,0.91897 -0.53174,1.4036 -0.14627,0.5359 -0.23505,1.08315 -0.29048,1.63506 -0.0545,0.58583 -0.0329,1.17393 0.0107,1.75943 0.0524,0.64871 0.17112,1.2888 0.30803,1.92417 0.14782,0.6644 0.34992,1.31435 0.57928,1.95459 0.23084,0.64177 0.51769,1.26068 0.81998,1.87129 0.30849,0.59618 0.66301,1.16705 1.04349,1.71959 0.39845,0.5718 0.82882,1.12104 1.25892,1.66928 0.48823,0.57381 0.99291,1.1343 1.52223,1.67051 0.54891,0.57443 1.12498,1.12124 1.73458,1.63069 0.63113,0.49623 1.27845,0.97085 1.92757,1.44307 0.73197,0.51707 1.49005,0.99404 2.24708,1.47296 0.81389,0.50438 1.65248,0.96561 2.48895,1.4308 0.86978,0.49725 1.77001,0.93774 2.65778,1.40145 0.93907,0.483 1.88383,0.95496 2.82121,1.44165 0.99372,0.50766 1.9939,1.00266 2.98667,1.51259 1.04659,0.52988 2.09958,1.04707 3.14524,1.5791 0,0 -21.34399,0.38547 -21.34399,0.38547 l 0,0 c -1.05161,-0.52522 -2.10486,-1.04706 -3.14917,-1.58666 -0.99904,-0.50311 -1.99953,-1.00317 -2.9908,-1.52147 -0.94479,-0.4805 -1.89129,-0.95754 -2.82546,-1.45853 -0.89838,-0.47217 -1.7855,-0.96454 -2.66172,-1.47678 -0.84639,-0.49384 -1.68003,-1.01004 -2.49347,-1.55663 -0.76874,-0.51405 -1.52434,-1.04873 -2.253,-1.61845 -0.6676,-0.5189 -1.32772,-1.05104 -1.92954,-1.64631 -0.59396,-0.58885 -1.17668,-1.189 -1.73367,-1.81317 -0.52705,-0.60857 -1.05434,-1.21826 -1.5207,-1.87568 -0.44265,-0.60209 -0.87748,-1.21068 -1.25594,-1.85596 -0.37507,-0.64719 -0.73508,-1.30381 -1.03062,-1.99197 -0.30243,-0.69323 -0.583,-1.39647 -0.80681,-2.11954 -0.22169,-0.7291 -0.4224,-1.46504 -0.56166,-2.21494 -0.1343,-0.73101 -0.24695,-1.4667 -0.28913,-2.2096 -0.0365,-0.7013 -0.0475,-1.40463 0.0189,-2.10481 0.0653,-0.65388 0.15824,-1.30521 0.32167,-1.94271 0.14815,-0.63269 0.32745,-1.25864 0.58914,-1.85504 0.26476,-0.59365 0.56215,-1.17305 0.93756,-1.70564 0.38254,-0.53572 0.79366,-1.05259 1.27315,-1.50588 0.46274,-0.42878 0.93711,-0.84667 1.45846,-1.20389 0.56064,-0.36878 1.14326,-0.70725 1.76056,-0.97291 0.71623,-0.30955 1.45707,-0.53839 2.23376,-0.63899 8.0127,-0.47141 16.0523,0.95914 23.9471,2.35812 0.95957,0.20853 1.92034,0.41664 2.86418,0.68937 1.05673,0.30942 2.09402,0.68 3.11977,1.08001 1.11198,0.44022 2.20317,0.92807 3.25923,1.49088 1.14073,0.60518 2.26851,1.23484 3.37335,1.90366 1.17891,0.72767 2.34466,1.47816 3.46879,2.2886 1.18201,0.86234 2.34524,1.75244 3.43757,2.7274 1.13379,1.00653 2.25521,2.02817 3.31583,3.11241 1.07545,1.10013 2.13189,2.21842 3.17177,3.35226 1.01264,1.10069 2.0205,2.20582 3.01379,3.32407 0.95376,1.07495 1.90227,2.15459 2.83454,3.24829 0.89229,1.04815 1.77877,2.10131 2.64711,3.16945 0.82804,1.0201 1.64931,2.04572 2.45209,3.08588 0.76414,0.9892 1.52772,1.97876 2.29469,2.96576 0.73375,0.94761 1.47198,1.89191 2.21655,2.83103 0.72385,0.90514 1.45553,1.80416 2.20194,2.69084 0.72658,0.85212 1.4472,1.70965 2.20185,2.53732 0.71316,0.79474 1.42674,1.58997 2.16564,2.36086 0.70454,0.71412 1.41927,1.41793 2.14358,2.112 0.69239,0.64649 1.38118,1.29679 2.11379,1.89834 0.69069,0.56795 1.37976,1.13982 2.10522,1.66328 0.70152,0.49877 1.40331,0.99836 2.13092,1.45872 0.69489,0.44806 1.40945,0.86234 2.1346,1.25964 0.68735,0.36114 1.36859,0.73441 2.08056,1.04611 0.61821,0.2781 1.24779,0.52778 1.87986,0.77262 0.55472,0.21467 1.1,0.45005 1.65743,0.65698 0.47289,0.1681 0.95381,0.31411 1.42035,0.49915 0.4294,0.13018 0.85936,0.25608 1.28162,0.40783 0,0 -21.37012,0.70275 -21.37012,0.70275 z"
       inkscape:connector-curvature="0" />
  </g>
</svg>
